<svg version="1.0"
    xmlns="http://www.w3.org/2000/svg"
    xmlns:xlink="http://www.w3.org/1999/xlink" viewBox="0 0 300 250">
    <g fill="#7f92b9" class="prefix__icon-text-wrapper prefix__icon-svg-group prefix__iconsvg">
        <g transform="translate(52.815 89.987)">
            <path class="prefix__image-rect" fill="none" d="M0 0h60v70.026H0z"/>
            <svg width="60" height="70.026" class="prefix__image-svg-svg prefix__primary" overflow="visible">
                <svg
                    xmlns="http://www.w3.org/2000/svg" viewBox="0 0 49.25 57.48">
                    <path d="M28.89.15C11.86 1.61 0 13.32 0 28.74S12 56 28.89 57.35z" fill="#42548f"/>
                    <path d="M32.92 57.48c.68 0 1.35 0 2-.07V.06c-.68 0-1.35 0-2-.06zm-3.03-.06c.67 0 1.35.06 2 .06V0c-.68 0-1.36 0-2 .07zm6.11-.08c.68-.05 1.36-.13 2-.21V.32c-.7-.08-1.37-.14-2-.19zM48.94 3.23c-.27-.14-.57-.28-.89-.42v51.78q.64-.27 1.2-.57zM45 55.69c.72-.22 1.39-.45 2-.69V2.4a29.2 29.2 0 00-2-.68zm-3 .77c.7-.15 1.38-.31 2-.49V1.44c-.65-.17-1.33-.33-2-.47zM39 57c.69-.1 1.37-.21 2-.34V.77c-.66-.12-1.34-.23-2-.32z"/>
                </svg>
            </svg>
        </g>
        <path d="M130.035 133.465c1.87 0 3.71-.35 4.97-.82v-4.93c-1.55.55-3.16.73-4.68.73-2.86 0-4.14-1.05-4.14-5.4 0-4.15 1.14-5.52 4.06-5.52 1.66 0 3.15.26 4.52.76v-4.94c-1.25-.46-3.01-.73-4.99-.73-6.07 0-9.96 2.6-9.96 10.43 0 8.49 4.03 10.42 10.22 10.42zm17.61-16.35c-1.87 0-3.3.53-4.24 3.04v-2.75h-5.54v15.77h5.54v-8.23c.24-2.19 2.17-2.9 4.01-2.9h.43l.12-4.93zm3.04 21.9c6.1 0 8.14-1.08 10.71-8l4.99-13.61h-6.07l-2.68 9.84h-.18l-2.92-9.84h-6.19l6.01 15.57c-.23.81-1.1 1.22-3.67 1.22zm27.5-21.9c-2.57 0-3.85.82-4.47 1.61v-1.32h-5.54v21.61h5.54v-7.33c.62 1.08 1.79 1.78 4.47 1.78 4.97 0 6.1-3.53 6.1-8.17 0-5.14-1.13-8.18-6.1-8.18zm-2.1 12.32c-2.22 0-2.69-1.55-2.69-4.14 0-2.78.47-4.21 2.69-4.21 2.25 0 2.6 1.64 2.6 4.21 0 2.42-.29 4.14-2.6 4.14zm19.74-7.76v-4.27h-2.81v-3.74h-5.54v3.74h-1.87v4.27h1.87v6.3c0 4.12 1.46 5.38 5.66 5.38.7 0 1.64-.06 2.25-.15v-4.15c-.26.09-.58.06-.91.06-1.13 0-1.46-.29-1.46-1.66v-5.78zm9.4 11.79c5.02 0 8.06-1.69 8.06-8.17 0-6.49-3.04-8.18-8.06-8.18-5.02 0-8.06 1.69-8.06 8.18 0 6.48 3.04 8.17 8.06 8.17zm0-4.03c-1.87 0-2.45-.93-2.45-4.14 0-3.22.58-4.21 2.45-4.21s2.45.99 2.45 4.21c0 3.21-.58 4.14-2.45 4.14zm23.21-16.52v7.09h-6.42v-7.09h-5.81v20.26h5.81v-8.32h6.42v8.32h5.81v-20.26zm19.3 4.49v10.4c-.26.79-.9 1.28-2.16 1.28-1.75 0-2.21-.44-2.21-2.28v-9.4h-5.55v10.72c0 3.74 1.52 5.34 5.25 5.34 2.66 0 3.94-.79 4.73-1.87l.35 1.58h5.11v-15.77zm19.04-.29c-2.57 0-3.85.82-4.46 1.61v-7.74h-5.55v22.19h5.11l.26-1.81c.56 1.28 1.66 2.1 4.64 2.1 4.97 0 6.11-3.53 6.11-8.17 0-5.14-1.14-8.18-6.11-8.18zm-2.1 12.32c-2.22 0-2.69-1.55-2.69-4.14 0-2.78.47-4.21 2.69-4.21 2.25 0 2.6 1.64 2.6 4.21 0 2.42-.29 4.14-2.6 4.14zm15.77 3.92c4.23 0 6.74-1.2 6.74-5.32 0-2.83-.61-3.85-3.88-4.79-2.48-.7-2.89-.67-2.89-1.25 0-.59.2-.82 1.84-.82 1.43 0 3.36.35 4.2.58l.18-4.11c-.94-.33-2.72-.53-4.61-.53-5.26 0-6.81 1.72-6.81 5.02 0 2.69.76 3.59 4.03 4.44 2.19.56 2.63.76 2.63 1.58 0 .84-.44.96-1.81.96-1.43 0-3.1-.26-4.97-.82v4.56c1.84.38 3.33.5 5.35.5z" data-gra="path-name"/>
    </g>
</svg>