<svg xmlns="http://www.w3.org/2000/svg" version="1.1" xmlns:xlink="http://www.w3.org/1999/xlink" width="60" height="60"><svg width="60" height="60" viewBox="0 0 60 60" fill="none" xmlns="http://www.w3.org/2000/svg">
<path d="M30 0C12.3157 1.53147 0 13.8147 0 29.9895C0 46.1643 12.4611 58.5839 30 60V0Z" fill="#42548F"></path>
<path d="M34.5997 60C35.4075 60 36.2035 60 36.9757 59.9269V0.0626305C36.1679 0.0626305 35.3719 0.0626305 34.5997 0V60ZM31 59.9374C31.796 59.9374 32.6038 60 33.376 60V0C32.5682 0 31.7603 0 31 0.0730689V59.9374ZM38.2588 59.8539C39.0666 59.8017 39.8745 59.7182 40.6348 59.6347V0.334029C39.8032 0.250522 39.0072 0.187891 38.2588 0.135699V59.8539ZM53.6317 3.37161C53.3109 3.22547 52.9545 3.07933 52.5744 2.93319V56.9833C53.0813 56.7954 53.5565 56.5971 54 56.3883L53.6317 3.37161ZM48.9509 58.1315C49.8063 57.9019 50.6023 57.6618 51.327 57.4113V2.50522C50.545 2.24351 49.7524 2.00675 48.9509 1.79541V58.1315ZM45.3869 58.9353C46.2185 58.7787 47.0263 58.6117 47.7629 58.4238V1.50313C46.9907 1.32568 46.1829 1.15866 45.3869 1.01253V58.9353ZM41.8228 59.499C42.6426 59.3946 43.4504 59.2798 44.1989 59.1441V0.803758C43.4148 0.678497 42.6069 0.563674 41.8228 0.469729V59.499Z" fill="#7F92B9"></path>
</svg><style>@media (prefers-color-scheme: light) { :root { filter: none; } }
@media (prefers-color-scheme: dark) { :root { filter: none; } }
</style></svg>